<svg xmlns="http://www.w3.org/2000/svg" viewBox="55 10 810 140" font-family="system-ui, -apple-system, sans-serif" font-size="13" role="img" aria-label="Audio filter chain">
  <defs>
    <marker id="ar" viewBox="0 0 10 10" refX="9" refY="5"
            markerWidth="7" markerHeight="7" orient="auto-start-reverse">
      <path d="M0,0 L10,5 L0,10 z" fill="#7a8190"/>
    </marker>
  </defs>

  <style>
    rect       { fill: #f8f9fb; rx: 10; ry: 10; }
    .title     { font-weight: 600; fill: #1e2329; }
    .sub       { font-size: 10.5px; fill: #5b6371; }
    .arrow     { stroke: #7a8190; stroke-width: 1.6; fill: none;
                 marker-end: url(#ar); }
    .ellipsis  { font-weight: 700; font-size: 22px; fill: #5b6371;
                 letter-spacing: 4px; }
  </style>

  <!-- Decoded audio (3 lines) — box y=40 h=80 cy=80 → y values 67, 85, 101 -->
  <rect x="85" y="40" width="100" height="80"/>
  <text class="title" x="135" y="67"  text-anchor="middle">Decoded</text>
  <text class="title" x="135" y="85"  text-anchor="middle">audio</text>
  <text class="sub"   x="135" y="101" text-anchor="middle">From demuxer</text>

  <!-- Custom (2 lines) → 75, 93 -->
  <rect x="215" y="40" width="130" height="80"/>
  <text class="title" x="280" y="75" text-anchor="middle">Custom</text>
  <text class="sub"   x="280" y="93" text-anchor="middle">Raw lavfi</text>

  <!-- Superequalizer (2 lines) -->
  <rect x="375" y="40" width="200" height="80"/>
  <text class="title" x="475" y="75" text-anchor="middle">Superequalizer</text>
  <text class="sub"   x="475" y="93" text-anchor="middle">18 frequency bands</text>

  <!-- ellipsis (1 line, big font) -->
  <rect x="605" y="40" width="100" height="80"/>
  <text class="ellipsis" x="655" y="90" text-anchor="middle">···</text>

  <!-- Output (2 lines) → 75, 93 -->
  <rect x="735" y="40" width="100" height="80"/>
  <text class="title" x="785" y="75" text-anchor="middle">Output</text>
  <text class="sub"   x="785" y="93" text-anchor="middle">To the speakers</text>

  <!-- arrows -->
  <path class="arrow" d="M185,80 L215,80"/>
  <path class="arrow" d="M345,80 L375,80"/>
  <path class="arrow" d="M575,80 L605,80"/>
  <path class="arrow" d="M705,80 L735,80"/>
</svg>
