<svg xmlns="http://www.w3.org/2000/svg" viewBox="10 10 860 448" font-family="system-ui, -apple-system, sans-serif" font-size="11" role="img" aria-label="Load hook sequence">
  <defs>
    <marker id="ar3" viewBox="0 0 10 10" refX="9" refY="5" markerWidth="7" markerHeight="7" orient="auto-start-reverse">
      <path d="M0,0 L10,5 L0,10 z" fill="#7a8190"/>
    </marker>
  </defs>
  <style>
    .lifeline  { stroke: #c8cdd4; stroke-dasharray: 4,4; stroke-width: 1.2; }
    rect       { fill: #f8f9fb; rx: 10; ry: 10; }
    .name      { font-weight: 600; fill: #1e2329; }
    .msg       { stroke: #7a8190; stroke-width: 1.6; fill: none; marker-end: url(#ar3); }
    .edge-text { fill: #5b6371; font-size: 10.5px; }
  </style>

  <!-- Lane headers: h=40, y=40 → cy=60. 1 line at y=64 -->
  <rect x="40"  y="40" width="180" height="40"/>
  <text class="name" x="130" y="64" text-anchor="middle">Your code</text>
  <line class="lifeline" x1="130" y1="80" x2="130" y2="430"/>

  <rect x="350" y="40" width="180" height="40"/>
  <text class="name" x="440" y="64" text-anchor="middle">Player</text>
  <line class="lifeline" x1="440" y1="80" x2="440" y2="430"/>

  <rect x="660" y="40" width="180" height="40"/>
  <text class="name" x="750" y="64" text-anchor="middle">Engine</text>
  <line class="lifeline" x1="750" y1="80" x2="750" y2="430"/>

  <text class="edge-text" x="285" y="110" text-anchor="middle">Register the hook once</text>
  <path class="msg" d="M130,120 L440,120"/>

  <text class="edge-text" x="595" y="165" text-anchor="middle">Start opening a track</text>
  <path class="msg" d="M440,175 L750,175"/>

  <text class="edge-text" x="595" y="215" text-anchor="middle">Pause and ask for the URL</text>
  <path class="msg" d="M750,225 L440,225"/>

  <text class="edge-text" x="285" y="270" text-anchor="middle">Forward to your handler</text>
  <path class="msg" d="M440,280 L130,280"/>

  <text class="edge-text" x="285" y="325" text-anchor="middle">Rewrite URL or add headers</text>
  <text class="edge-text" x="285" y="338" text-anchor="middle">if needed</text>
  <path class="msg" d="M130,348 L440,348"/>

  <text class="edge-text" x="285" y="385" text-anchor="middle">Tell the player to continue</text>
  <path class="msg" d="M130,398 L440,398"/>
  <path class="msg" d="M440,420 L750,420"/>
  <text class="edge-text" x="595" y="412" text-anchor="middle">Engine resumes loading</text>
</svg>
