<svg xmlns="http://www.w3.org/2000/svg" viewBox="-10 10 900 160" font-family="system-ui, -apple-system, sans-serif" font-size="13" role="img" aria-label="Player lifecycle">
  <defs>
    <marker id="arrow" viewBox="0 0 10 10" refX="9" refY="5" markerWidth="7" markerHeight="7" orient="auto-start-reverse">
      <path d="M0,0 L10,5 L0,10 z" fill="#7a8190"/>
    </marker>
  </defs>
  <style>
    rect      { fill: #f8f9fb; rx: 10; ry: 10; }
    .title    { font-weight: 600; fill: #1e2329; }
    .subtitle { font-size: 10.5px; fill: #5b6371; }
    .arrow    { stroke: #7a8190; stroke-width: 1.6; fill: none; marker-end: url(#arrow); }
  </style>

  <!-- All boxes h=100, y=40 → cy=90.  3-line layout: 77, 95, 111 -->

  <rect x="20" y="40" width="140" height="100"/>
  <text class="title"    x="90" y="77"  text-anchor="middle">Initialize</text>
  <text class="subtitle" x="90" y="95"  text-anchor="middle">Once, at app start</text>
  <text class="subtitle" x="90" y="111" text-anchor="middle">Sets up the engine</text>

  <rect x="190" y="40" width="140" height="100"/>
  <text class="title"    x="260" y="77"  text-anchor="middle">Create player</text>
  <text class="subtitle" x="260" y="95"  text-anchor="middle">One player handles</text>
  <text class="subtitle" x="260" y="111" text-anchor="middle">one playback session</text>

  <rect x="360" y="40" width="140" height="100"/>
  <text class="title"    x="430" y="77"  text-anchor="middle">Open audio</text>
  <text class="subtitle" x="430" y="95"  text-anchor="middle">Load a track</text>
  <text class="subtitle" x="430" y="111" text-anchor="middle">or playlist</text>

  <rect x="530" y="40" width="170" height="100"/>
  <text class="title"    x="615" y="77"  text-anchor="middle">Listen and control</text>
  <text class="subtitle" x="615" y="95"  text-anchor="middle">Subscribe to streams,</text>
  <text class="subtitle" x="615" y="111" text-anchor="middle">change settings live</text>

  <rect x="730" y="40" width="130" height="100"/>
  <text class="title"    x="795" y="77"  text-anchor="middle">Dispose</text>
  <text class="subtitle" x="795" y="95"  text-anchor="middle">Release everything</text>
  <text class="subtitle" x="795" y="111" text-anchor="middle">when you are done</text>

  <path class="arrow" d="M160,90 L190,90"/>
  <path class="arrow" d="M330,90 L360,90"/>
  <path class="arrow" d="M500,90 L530,90"/>
  <path class="arrow" d="M700,90 L730,90"/>
</svg>
